<svg width="108" height="42" viewBox="0 0 108 42" fill="none" xmlns="http://www.w3.org/2000/svg">
<path d="M52.8021 0.00204928C55.917 -0.0446078 58.7543 1.00566 61.6116 1.97178C67.567 3.99321 73.1479 6.98628 78.1263 10.8292C78.8476 11.3841 79.748 11.6545 80.6556 11.588C88.0341 11.4182 95.1438 12.5043 101.623 16.3224C103.29 17.3144 104.823 18.5161 106.185 19.8976C106.639 20.3232 107.001 20.8386 107.244 21.4112C107.488 21.9838 107.611 22.6014 107.603 23.2237C107.585 24.7226 107.626 26.2219 107.585 27.7208C107.5 30.6222 105.737 32.3271 102.876 32.3302C101.597 32.3302 100.309 32.412 99.0413 32.3009C98.1308 32.2218 97.9045 32.5935 97.7142 33.3751C97.3019 35.1138 96.4503 36.7182 95.2405 38.0333C94.0306 39.3484 92.5025 40.3314 90.804 40.8868C89.1056 41.4422 87.2925 41.5512 85.5394 41.2052C83.7861 40.859 82.1504 40.0686 80.7904 38.9093C79.0014 37.4255 77.7797 35.3687 77.3323 33.088C77.2123 32.5028 77.0394 32.3186 76.4544 32.3185C62.3007 32.336 48.1482 32.336 33.9984 32.3185C33.4129 32.3185 33.2395 32.4998 33.1195 33.0821C32.0273 38.0127 27.8752 41.3681 22.9241 41.3858C17.9729 41.4034 13.8473 38.1329 12.6761 33.1671C12.521 32.5116 12.3128 32.2894 11.637 32.3126C9.47921 32.3594 7.32024 32.3389 5.16242 32.3126C2.46309 32.3124 0.703324 30.6927 0.430979 28.0196C0.29923 26.708 0.137938 25.4015 0.0266825 24.0899C-0.145857 22.2545 0.516196 20.7904 2.07649 19.7892C2.44308 19.5831 2.74355 19.2758 2.94075 18.9044C3.13788 18.5328 3.2246 18.1117 3.18977 17.6925C3.14587 16.5595 3.16635 15.4231 3.18977 14.2901C3.23383 11.3331 5.05487 9.50595 7.98567 9.47373C8.96051 9.48251 9.9855 9.48252 11.0072 9.48252C13.8003 9.99184 16.1639 8.96705 18.5794 7.67002C23.7178 4.91493 28.9765 2.37887 34.5511 0.58701C35.8045 0.185518 37.1149 -0.0116303 38.431 0.00204928C43.2211 0.0313289 48.012 0.0664631 52.8021 0.00204928ZM22.8773 23.2442C21.3555 23.2361 19.8651 23.6799 18.596 24.5196C17.327 25.3594 16.3358 26.5573 15.7484 27.961C15.161 29.3648 15.0035 30.912 15.2962 32.4054C15.589 33.8987 16.3189 35.2716 17.3929 36.3497C18.4669 37.4278 19.8372 38.1626 21.3294 38.461C22.8215 38.7594 24.3688 38.6084 25.7747 38.0265C27.1808 37.4444 28.3822 36.4573 29.2269 35.1915C30.0714 33.9258 30.521 32.4377 30.5189 30.9161C30.5197 28.8865 29.7158 26.939 28.2835 25.5011C26.8511 24.0631 24.9069 23.2513 22.8773 23.2442ZM89.0687 23.3712C87.5764 23.0748 86.0294 23.228 84.6243 23.8116C83.2192 24.3954 82.0191 25.3838 81.1761 26.6505C80.3332 27.9171 79.885 29.4054 79.889 30.9269C79.8944 32.9558 80.7022 34.9005 82.1361 36.336C83.5699 37.7715 85.5134 38.5821 87.5423 38.5899C89.0637 38.5957 90.553 38.1491 91.8206 37.3077C93.0882 36.4661 94.078 35.2668 94.6634 33.8624C95.2487 32.4579 95.4044 30.9108 95.1097 29.4181C94.8149 27.9254 94.0834 26.5532 93.0081 25.4767C91.9328 24.4001 90.5611 23.6677 89.0687 23.3712ZM85.8226 26.4181C86.7171 26.0735 87.6939 26.0021 88.6292 26.212C89.5645 26.4219 90.4169 26.904 91.0784 27.5978C91.7398 28.2914 92.1808 29.1654 92.346 30.1095C92.5112 31.0537 92.3929 32.0263 92.0062 32.9034C91.6194 33.7804 90.9816 34.5233 90.1732 35.0382C89.3646 35.5531 88.4216 35.8165 87.4632 35.796C86.1753 35.7607 84.9539 35.2177 84.0648 34.2853C83.1756 33.3528 82.6911 32.1066 82.7171 30.8185C82.7423 29.8605 83.0503 28.9315 83.6029 28.1485C84.1556 27.3654 84.9281 26.7627 85.8226 26.4181ZM22.9534 26.0401C24.2402 26.0778 25.4599 26.622 26.348 27.5538C27.2361 28.4858 27.721 29.7306 27.6966 31.0177C27.6721 31.9768 27.3638 32.9074 26.8109 33.6915C26.2578 34.4756 25.4845 35.0789 24.5892 35.4239C23.694 35.7689 22.7166 35.841 21.7806 35.631C20.8445 35.4208 19.9913 34.9377 19.3294 34.2433C18.6675 33.5486 18.2257 32.6729 18.0609 31.7276C17.8961 30.7824 18.0149 29.8094 18.4027 28.9317C18.7905 28.054 19.4297 27.3106 20.2396 26.796C21.0494 26.2814 21.9942 26.0185 22.9534 26.0401ZM87.6068 28.8517C87.0683 28.855 86.5523 29.068 86.1683 29.4454C85.7844 29.8229 85.5627 30.3349 85.5501 30.8731C85.5376 31.4114 85.735 31.9333 86.1009 32.3282C86.4669 32.7232 86.9724 32.9599 87.5101 32.9884C87.7844 32.9911 88.0568 32.9394 88.3109 32.836C88.5648 32.7327 88.7961 32.5802 88.9905 32.3868C89.1851 32.1934 89.3389 31.9626 89.4437 31.7091C89.5484 31.4556 89.6021 31.1835 89.6009 30.9093C89.6033 30.3738 89.3953 29.8583 89.0228 29.4737C88.6502 29.0893 88.142 28.8662 87.6068 28.8517ZM22.8509 28.8399C22.3159 28.8601 21.8093 29.0863 21.4378 29.4718C21.0663 29.8575 20.8587 30.3728 20.8587 30.9083C20.8588 31.4438 21.0664 31.9581 21.4378 32.3438C21.8093 32.7296 22.3158 32.9565 22.8509 32.9767C23.4034 32.9666 23.9296 32.7382 24.3138 32.3409C24.698 31.9435 24.9093 31.4092 24.9007 30.8565C24.8841 30.3213 24.6613 29.8132 24.2796 29.4376C23.8979 29.0619 23.3864 28.848 22.8509 28.8399ZM23.6937 8.36142C23.448 8.33731 23.2016 8.40317 23.0003 8.54599C21.1412 9.55312 19.2315 10.4725 17.3782 11.4884C16.4251 12.0327 15.346 12.319 14.2484 12.3194H8.32258C6.43994 12.3224 5.95346 12.8177 5.95344 14.7442C5.95343 15.7308 5.91832 16.7206 5.95344 17.7071C6.02073 19.5867 5.30871 21.0456 3.70149 22.0411C3.39053 22.2013 3.13472 22.4518 2.96907 22.7599C2.80342 23.0682 2.73556 23.4207 2.77375 23.7687C2.88793 25.1123 3.01412 26.4621 3.18098 27.8028C3.3391 29.0704 3.84811 29.5098 5.13606 29.5099C7.21775 29.5303 9.30632 29.4835 11.388 29.5304C12.1429 29.5478 12.4858 29.4044 12.682 28.5616C13.2096 26.2588 14.5033 24.2028 16.3509 22.7306C18.1986 21.2584 20.4914 20.4562 22.8538 20.4562C25.2163 20.4562 27.5091 21.2583 29.3568 22.7306C31.2044 24.2029 32.4981 26.2588 33.0257 28.5616C33.2306 29.4689 33.6143 29.5128 34.3255 29.5128H55.1702C61.7542 29.5147 68.345 29.5138 74.9407 29.5099C75.6696 29.51 76.5272 29.691 77.0775 29.3663C77.4782 29.1259 77.4556 28.192 77.6634 27.5831C79.1715 23.0655 83.3031 20.2903 88.2044 20.4806C92.6606 20.6477 96.6279 23.9062 97.6878 28.3858C97.9103 29.3196 98.2678 29.5917 99.181 29.5304C100.381 29.4455 101.594 29.5069 102.8 29.5069C104.217 29.5069 104.695 29.1055 104.785 27.6651C104.841 26.4941 104.747 25.3225 104.841 24.1515C104.943 22.8899 104.44 22.017 103.53 21.2032C99.8785 17.9386 95.5239 16.2202 90.8157 15.1983C86.3771 14.241 81.8735 14.3341 77.3851 14.3194C62.4992 14.3019 47.6147 14.3019 32.7327 14.3194C31.8932 14.3493 31.0722 14.0668 30.429 13.5265C28.4205 11.8839 26.3526 10.3135 24.3382 8.67685C24.1686 8.49755 23.9393 8.38569 23.6937 8.36142ZM65.0784 6.36435C60.2972 4.34996 55.4951 2.37644 50.1136 2.80967C49.2793 2.877 48.9899 2.91474 49.4671 3.79306C50.6851 6.07674 51.8634 8.38149 53.0032 10.7062C53.3077 11.3267 53.6658 11.503 54.3392 11.503C60.52 11.4855 66.7043 11.4854 72.8851 11.4854H74.2171C73.7372 11.1577 73.4708 10.9814 73.2366 10.8116C70.6665 9.07096 67.9338 7.58186 65.0784 6.36435ZM40.8148 2.84189C39.3216 2.86531 37.8011 2.63423 36.3372 3.00889C32.9937 3.86675 29.8663 5.35949 26.5521 6.86728C28.4025 8.32536 30.1039 9.6435 31.7728 10.9991C32.1895 11.3432 32.7203 11.5192 33.2601 11.4913H50.2484C48.7991 8.63966 47.4145 5.92215 46.0355 3.20517C45.8218 2.78662 45.4521 2.84186 45.0892 2.84189C43.6635 2.84189 42.2404 2.81849 40.8148 2.84189Z" fill="#0E317D"/>
</svg>
