<svg width="105" height="38" viewBox="0 0 105 38" fill="none" xmlns="http://www.w3.org/2000/svg">
<path d="M50.852 26.1114C44.5334 26.1114 38.2176 26.1141 31.8991 26.1087C31.4915 26.1087 31.073 26.1059 30.6818 26.0075C29.9625 25.8269 29.5959 25.2717 29.6041 24.5687C29.6123 23.822 30.0062 23.264 30.7858 23.108C31.1496 23.0342 31.5325 23.0397 31.9073 23.0397C44.5416 23.0369 57.1787 23.0369 69.8131 23.0369C69.8814 23.0369 69.9498 23.0369 70.0182 23.0369C71.3859 23.0506 72.1271 23.5949 72.1244 24.5769C72.1217 25.5616 71.3749 26.1114 70.01 26.1114C63.6258 26.1141 57.2389 26.1114 50.852 26.1114Z" fill="#0E317D"/>
<path fill-rule="evenodd" clip-rule="evenodd" d="M0.00273797 12.6647C0.155955 12.3604 0.275823 12.0418 0.395818 11.7228C0.571446 11.256 0.747345 10.7884 1.02848 10.3643C2.20466 8.59453 3.89781 7.73291 5.93834 7.36091C11.1373 6.41436 16.3322 5.44348 21.5266 4.47271L24.046 4.00196C26.8962 3.47131 28.3158 3.75852 31.2809 5.53373C31.9073 3.44396 33.1956 2.05989 35.4221 1.71798C38.0535 1.31316 40.6192 3.30172 40.8216 5.95223C40.9037 7.00532 40.8927 8.06935 40.8544 9.12791C40.8326 9.72694 41.0487 9.91021 41.6176 9.87191C42.0553 9.84182 42.512 9.8555 42.9415 9.94303C43.7566 10.1099 44.1696 10.6624 44.1313 11.4885C44.0931 12.3173 43.6335 12.8479 42.7993 12.9054C38.7702 13.1926 34.9599 12.6373 31.7295 9.92936C31.3925 9.64768 31.0462 9.37641 30.7 9.10518C30.2932 8.78643 29.8864 8.46773 29.4948 8.13226C28.0888 6.92326 26.4804 6.64152 24.7025 6.97797L23.278 7.24719C19.0617 8.04424 14.8445 8.84146 10.6184 9.60112C9.83341 9.74335 9.55713 10.0196 9.61731 10.8375C9.69116 11.855 9.71579 12.9026 9.5544 13.9037C9.15778 16.3464 7.16922 17.8481 4.47495 17.8781C3.069 17.8946 3.069 17.8946 3.07174 19.2677C3.07174 19.9566 3.06982 20.6452 3.0679 21.3338V21.3338V21.3338V21.3338C3.06334 22.9691 3.05878 24.6039 3.07995 26.24C3.10457 27.9933 4.42024 29.402 6.08331 29.5852C6.59754 29.6427 6.70422 29.536 6.65225 28.9917C6.16263 23.6223 9.74861 18.9093 14.8171 18.2173C20.233 17.4788 24.9624 20.9034 25.9525 26.2892C26.1084 27.1371 26.1221 27.9988 26.0154 28.8412C25.9279 29.5223 26.1741 29.6317 26.7841 29.629C29.4288 29.6109 32.0734 29.6135 34.7181 29.6162C35.6622 29.6171 36.6062 29.618 37.5502 29.618C40.1476 29.618 42.7449 29.6176 45.3421 29.6171H45.3423H45.3425H45.3427C55.0833 29.6153 64.823 29.6134 74.5643 29.6372C75.4806 29.6399 75.735 29.4649 75.6858 28.4829C75.4204 23.346 78.8997 18.9887 83.7713 18.231C88.8535 17.4405 93.5281 20.515 94.8247 25.4987C95.9981 30.0065 93.747 34.6866 89.4334 36.7134C85.2511 38.6774 80.1936 37.3726 77.4993 33.5514C77.0124 32.8621 76.5228 32.6816 75.7487 32.6843C59.1399 32.7007 42.5285 32.7007 25.9197 32.6843C25.1812 32.6843 24.7052 32.843 24.243 33.4994C20.3588 39.0193 12.2706 38.9865 8.37823 33.4475C7.9734 32.8731 7.56584 32.6816 6.88749 32.6843C3.41639 32.6898 1.20354 31.0103 0.175063 27.6678C0.156182 27.6074 0.108625 27.5561 0.0611854 27.5049C0.0398999 27.4819 0.0186378 27.459 0 27.4353C0.0027353 22.509 0.00273797 17.5882 0.00273797 12.6647ZM22.9957 27.8675C22.9929 31.5273 20.0306 34.517 16.3762 34.5525C12.7137 34.5881 9.64741 31.5328 9.65015 27.8511C9.65288 24.1557 12.6918 21.155 16.3927 21.1933C20.0798 21.2316 22.9984 24.1803 22.9957 27.8675ZM85.4016 21.1906C81.6843 21.1742 78.7083 24.1584 78.7192 27.8866C78.7329 31.5464 81.7089 34.5361 85.3578 34.5525C89.0204 34.569 92.0812 31.4999 92.0648 27.8292C92.0483 24.1748 89.0696 21.207 85.4016 21.1906ZM37.769 9.54369C36.9238 9.4206 36.2154 9.10603 35.5206 8.75318C34.2487 8.10765 33.9451 7.33082 34.421 5.9495C34.7164 5.09608 35.3538 4.68032 36.2208 4.76785C37.0825 4.85265 37.7007 5.36141 37.7526 6.26679C37.7985 7.02141 37.7883 7.7787 37.778 8.54517V8.54524C37.7735 8.87617 37.769 9.20881 37.769 9.54369ZM6.56938 12.3927C6.56568 12.2651 6.56198 12.1376 6.56198 12.0109H6.57293C6.57293 11.9245 6.56965 11.8377 6.56637 11.7511C6.55928 11.5636 6.5522 11.3764 6.57839 11.1931C6.68506 10.4354 6.38419 10.3807 5.73045 10.5639C3.999 11.0508 2.91309 12.5306 3.08268 14.3004C3.08465 14.3194 3.0865 14.3394 3.08841 14.36C3.1024 14.5114 3.11943 14.6956 3.20849 14.7654C4.14123 15.4902 6.41701 14.4508 6.55378 13.2363C6.58583 12.9592 6.57759 12.6756 6.56938 12.3927Z" fill="#0E317D"/>
<path fill-rule="evenodd" clip-rule="evenodd" d="M104.789 29.3145C104.859 29.1647 104.928 29.0147 105 28.8658V19.6424C104.415 17.6074 103.372 15.9115 101.398 14.9514C100.328 14.4289 99.2477 13.9229 98.1399 13.4853C91.2743 10.7718 84.0914 9.91842 76.7744 9.87739C76.2028 9.87192 75.735 9.72968 75.2591 9.40965C73.4418 8.19011 71.6205 6.97827 69.7991 5.76641C67.7028 4.37163 65.6065 2.97683 63.5164 1.57029C62.0886 0.607461 60.5432 0.0549237 58.8281 0.0166295C57.9049 -0.00400223 56.9816 -0.000857379 56.0583 0.00228748C55.5127 0.00414587 54.9671 0.00600427 54.4216 0.00295629C53.7213 0.000220987 53.1059 0.216311 52.7941 0.859107C52.4686 1.52926 52.6299 2.16658 53.1305 2.7492C53.941 3.69029 54.7326 4.64708 55.5245 5.60411C55.7775 5.90994 56.0306 6.2158 56.2843 6.52117C56.7729 7.11023 57.2607 7.70099 57.7716 8.31983C58.1788 8.81307 58.6008 9.32416 59.0497 9.86645C58.2469 9.86645 57.4593 9.8661 56.6832 9.86575C54.3998 9.86473 52.215 9.86375 50.0287 9.87192C49.5883 9.87465 49.126 9.88013 48.713 10.006C47.9635 10.2357 47.638 10.8238 47.7146 11.5897C47.7857 12.3118 48.1988 12.7877 48.9345 12.8999C49.2424 12.9455 49.5578 12.9436 49.8713 12.9417C49.9339 12.9413 49.9964 12.9409 50.0588 12.9409C57.5398 12.9437 65.0236 12.9464 72.5046 12.9409C72.6915 12.9408 72.8784 12.9406 73.0653 12.9405C77.2521 12.9367 81.4379 12.933 85.5985 13.4907C90.5603 14.1554 95.369 15.3562 99.8686 17.6156C100.525 17.9438 101.078 18.3787 101.458 19.016C101.74 19.4892 101.827 19.812 101.056 19.7655C100.271 19.7163 99.4829 19.7327 98.6979 19.76C97.6256 19.7956 97.0047 20.3673 96.9993 21.2726C96.9938 22.1726 97.6147 22.7716 98.676 22.8181C99.4939 22.8537 100.317 22.8673 101.135 22.8154C101.748 22.7771 101.969 22.933 101.939 23.5895C101.9 24.4308 101.908 25.2735 101.916 26.1165C101.92 26.5041 101.924 26.8917 101.923 27.2794C101.92 28.885 101.562 29.3254 100.008 29.6427C99.1 29.8259 98.583 30.4469 98.6486 31.2675C98.717 32.1154 99.4173 32.7254 100.35 32.6789C101.471 32.6214 102.462 32.2221 103.337 31.4972C104.053 30.9054 104.42 30.112 104.789 29.3145ZM61.7713 4.08676C60.5295 3.25523 59.1673 2.9817 57.4604 3.12668C59.3396 5.38056 61.0957 7.48948 62.8517 9.60113C62.9885 9.76525 63.1499 9.86371 63.3742 9.86371C65.5988 9.86098 67.8234 9.86098 70.3036 9.86098H70.3191C70.1936 9.75829 70.1057 9.68368 70.0387 9.62683C69.9451 9.54739 69.8923 9.50263 69.8349 9.46436C69.0934 8.97024 68.3516 8.47653 67.6099 7.98284C65.6621 6.68647 63.7146 5.3902 61.7713 4.08676Z" fill="#0E317D"/>
<path d="M19.0459 26.705C19.0404 27.6295 16.1683 30.5043 15.2247 30.5344C14.6229 30.5536 14.1579 30.3046 13.8625 29.7904C13.5726 29.2816 13.5124 28.6963 13.8844 28.2449C14.7515 27.1919 15.6678 26.1579 16.7893 25.3784C17.7302 24.7246 19.0541 25.5589 19.0459 26.705Z" fill="#0E317D"/>
<path d="M83.9628 25.1759C85.1417 25.1458 88.0712 28.0452 88.0548 29.0272C88.0439 29.6153 87.8004 30.0803 87.2588 30.3593C86.6872 30.652 86.0881 30.6492 85.6286 30.2307C84.7205 29.4047 83.8561 28.5266 83.0219 27.6267C82.5979 27.1672 82.5541 26.5791 82.8577 26.002C83.1367 25.474 83.5853 25.2087 83.9628 25.1759Z" fill="#0E317D"/>
</svg>
