<svg width="83" height="49" viewBox="0 0 83 49" fill="none" xmlns="http://www.w3.org/2000/svg">
<path fill-rule="evenodd" clip-rule="evenodd" d="M35.7193 0.00788896C34.623 0.00653646 33.5267 0.00518399 32.4305 0.00518399C28.7204 0.00852378 25.0099 0.00947862 21.2989 0.00804728C18.7519 0.00518461 16.5562 0.86828 14.7491 2.67248C10.7409 6.67403 6.73651 10.6787 2.73592 14.6864C1.20224 16.2222 0.227496 18.0687 0.152351 20.2414C0.00563877 24.4789 -0.110298 28.7336 0.175969 32.956C0.500167 37.7009 4.24097 40.9779 9.01663 40.993C9.73087 40.9951 9.91765 41.2291 10.073 41.8647C11.0899 46.0427 14.8178 48.9305 19.0303 48.8589C21.0959 48.8253 23.089 48.0921 24.684 46.7792C26.279 45.4663 27.3815 43.6512 27.8115 41.6306C27.9189 41.139 28.067 41.0073 28.5522 41.0073C37.0057 41.0211 45.4587 41.0211 53.9113 41.0073C54.3893 41.0066 54.5504 41.1225 54.6577 41.6235C55.0871 43.6442 56.1887 45.4598 57.7827 46.7739C59.3768 48.0879 61.3691 48.8229 63.4347 48.8589C67.6535 48.934 71.3857 46.0556 72.3877 41.8668C72.5616 41.1418 72.8536 41.003 73.5328 40.9987C77.8089 40.9679 81.3579 38.1561 82.1745 34.041C82.6318 31.7344 82.5523 29.3598 82.2861 27.0374C81.8374 23.1406 79.3325 20.4111 75.5273 19.442L75.1156 19.3371C72.1247 18.5747 69.134 17.8124 66.1327 17.0939C64.7441 16.7706 63.4774 16.0558 62.4828 15.0342C60.6189 13.1587 58.747 11.2895 56.8748 9.41996L56.8739 9.41903C54.6993 7.24752 52.5243 5.07559 50.3608 2.89291C48.43 0.944858 46.1319 -0.0148553 43.3938 0.000173788C40.8358 0.0142011 38.2775 0.011045 35.7193 0.00788896ZM35.703 2.60233C34.6224 2.6002 33.5418 2.59808 32.4612 2.59808C31.2653 2.59808 30.0693 2.59925 28.8732 2.60042H28.8731H28.8729H28.8728C26.3307 2.60291 23.7883 2.6054 21.246 2.59664C19.391 2.58877 17.828 3.22071 16.5169 4.53539C12.5568 8.50497 8.59154 12.4698 4.62101 16.4298C3.3557 17.6937 2.67653 19.1887 2.67653 20.9858C2.67723 22.196 2.67372 23.4062 2.67022 24.6164C2.6629 27.1448 2.65558 29.6731 2.68655 32.201C2.73092 35.7972 5.35814 38.3658 8.94723 38.471C9.59347 38.4896 9.89048 38.3579 10.0594 37.6573C11.0878 33.3926 14.7327 30.5721 19.0518 30.6237C23.2892 30.6709 26.8704 33.6044 27.8151 37.8519C27.9268 38.3558 28.1107 38.4645 28.5773 38.4645C37.0026 38.4502 45.4277 38.4502 53.8526 38.4645C54.36 38.4653 54.5425 38.3436 54.662 37.8054C55.8207 32.6003 61.0587 29.4586 66.1006 30.9815C69.5322 32.0185 71.6284 34.3859 72.4943 37.8519C72.5079 37.9059 72.5165 37.9607 72.5249 38.0143C72.5606 38.2415 72.5928 38.446 72.9796 38.4645C77.0174 38.6563 80.0361 35.6047 79.7949 31.6428C79.772 31.2656 79.621 31.1762 79.2825 31.1812C78.39 31.1948 77.4969 31.1991 76.6044 31.1812C75.6798 31.1626 75.1731 30.6967 75.1731 29.9094C75.1774 29.1387 75.7149 28.6441 76.6087 28.6284L76.6411 28.6278C77.4949 28.613 78.3507 28.5981 79.203 28.6355C79.6897 28.6577 79.797 28.4931 79.797 28.0244C79.7763 25.0765 77.912 22.7277 74.8947 21.9476C74.2825 21.7892 73.6711 21.6258 73.0595 21.4623L73.059 21.4621C71.1951 20.9638 69.3303 20.4652 67.4396 20.1091C64.1847 19.4957 61.5775 17.9871 59.3053 15.5596C57.0284 13.1271 54.6561 10.784 52.2834 8.44073L52.2832 8.44047L52.283 8.44034C51.0224 7.19525 49.7617 5.9501 48.5151 4.69141C47.101 3.26365 45.4392 2.57017 43.4253 2.58877C40.8515 2.61246 38.2773 2.6074 35.703 2.60233ZM70.0589 39.7764C70.0561 40.632 69.8848 41.4788 69.5548 42.2682C69.2248 43.0577 68.7425 43.7745 68.1355 44.3775C67.5285 44.9806 66.8087 45.4583 66.0171 45.7831C65.2255 46.108 64.3776 46.2738 63.522 46.2711C62.6663 46.2683 61.8196 46.097 61.0301 45.767C60.2406 45.437 59.5239 44.9547 58.9208 44.3477C58.3177 43.7407 57.8401 43.0208 57.5152 42.2292C57.1903 41.4376 57.0245 40.5898 57.0273 39.7341C57.0273 36.1329 59.9508 33.1901 63.5399 33.175C67.1812 33.1571 70.0503 36.0628 70.0589 39.7764ZM12.3667 39.9925C12.517 43.3612 15.389 46.2761 18.8957 46.2839C22.454 46.2925 25.4248 43.3726 25.4427 39.8479C25.467 36.1408 22.5242 33.1206 18.8793 33.1793C14.6375 33.2509 12.2278 36.8822 12.3667 39.9925Z" fill="#0E317D"/>
<path d="M37.3993 27.4669C36.8411 27.4669 36.2829 27.4855 35.7254 27.4633C34.9131 27.4318 34.3692 26.8908 34.3828 26.1701C34.3964 25.4752 34.9203 24.9463 35.6889 24.9284C36.834 24.9026 37.979 24.9041 39.1198 24.9284C39.9514 24.9449 40.461 25.4659 40.4481 26.2166C40.4359 26.9323 39.9385 27.4282 39.1599 27.4626C38.5716 27.484 37.9848 27.4669 37.3993 27.4669Z" fill="#0E317D"/>
<path fill-rule="evenodd" clip-rule="evenodd" d="M33.5082 21.9641H43.4661C44.3268 21.9641 45.1875 21.9632 46.0482 21.9624C48.479 21.96 50.9102 21.9577 53.343 21.9741C54.5546 21.982 55.4743 21.5368 55.943 20.3996C56.3989 19.2975 56.0718 18.332 55.2467 17.5083C52.0901 14.3527 48.9338 11.1975 45.7777 8.04287C44.9847 7.25349 44.0293 6.87275 42.915 6.87275C41.8644 6.87275 40.8135 6.87195 39.7625 6.87116C37.6607 6.86957 35.5589 6.86798 33.4596 6.87275C32.3052 6.87561 31.8586 7.33579 31.8586 8.51092C31.8558 12.4438 31.8558 16.3766 31.8586 20.3094C31.8622 21.5461 32.2716 21.9641 33.5082 21.9641ZM41.2761 19.412H53.5041C52.6105 18.5171 51.7267 17.6323 50.8501 16.7547C48.5252 14.4272 46.2509 12.1503 43.9792 9.86927C43.6085 9.49927 43.1555 9.43987 42.6724 9.43987C42.0376 9.44005 41.4029 9.44128 40.7681 9.44252C38.8916 9.44616 37.0153 9.4498 35.1393 9.42627C34.546 9.41912 34.3921 9.60018 34.3978 10.1799C34.4308 12.9977 34.4308 15.8155 34.3978 18.6334C34.3907 19.2402 34.5152 19.4442 35.1665 19.4292C36.6319 19.3952 38.0985 19.4012 39.5651 19.4073C40.1355 19.4096 40.7058 19.412 41.2761 19.412Z" fill="#0E317D"/>
<path fill-rule="evenodd" clip-rule="evenodd" d="M11.5809 21.9648H19.1941C20.2312 21.9645 21.2684 21.9651 22.3059 21.9658C23.8622 21.9667 25.4191 21.9677 26.977 21.9655C28.1758 21.9627 28.6159 21.5504 28.6159 20.3717C28.6259 16.4117 28.6259 12.4516 28.6159 8.49161C28.6123 7.32149 28.1515 6.87849 26.9828 6.87348C26.2944 6.87139 25.6061 6.87217 24.9177 6.87296C23.9601 6.87405 23.0024 6.87514 22.0447 6.86847C20.8352 6.85989 19.8275 7.28499 18.9744 8.1438C15.8851 11.245 12.7879 14.3396 9.6829 17.4275C8.8334 18.2712 8.47485 19.2238 8.91356 20.3774C9.32435 21.4595 10.1867 21.9648 11.5809 21.9648ZM13.7168 17.0336C12.9309 17.8189 12.1385 18.6107 11.3376 19.4113C12.3208 19.4113 13.2958 19.411 14.2641 19.4108C18.1046 19.4097 21.8408 19.4087 25.5765 19.4242C26.0275 19.4255 26.0254 19.1987 26.0228 18.9121C26.0226 18.8899 26.0224 18.8673 26.0224 18.8445C26.022 18.5194 26.0215 18.1943 26.0211 17.8692C26.0176 15.2672 26.0142 12.6652 26.0288 10.0632C26.031 9.61377 25.9386 9.41625 25.4377 9.43199C24.6188 9.45773 23.7966 9.45311 22.9735 9.44849C22.652 9.44668 22.3305 9.44487 22.0089 9.44487C21.5781 9.44487 21.1952 9.55223 20.8738 9.87428C18.5107 12.2434 16.1446 14.6076 13.7168 17.0336Z" fill="#0E317D"/>
<path fill-rule="evenodd" clip-rule="evenodd" d="M60.5511 36.7381C59.757 37.5374 59.3123 38.6189 59.3146 39.7456C59.3188 42.0715 61.2569 44.0067 63.5756 43.9967C65.8944 43.9867 67.836 42.0307 67.8267 39.7184C67.8174 37.3925 65.8844 35.4781 63.5506 35.4824C62.4239 35.4873 61.3452 35.9389 60.5511 36.7381ZM62.3769 40.9038C62.6874 41.2099 63.1047 41.3836 63.5407 41.3881C63.7565 41.3942 63.9714 41.3576 64.1729 41.2804C64.3745 41.2031 64.5588 41.0867 64.7151 40.9379C64.8715 40.7891 64.9968 40.6107 65.0839 40.4132C65.171 40.2157 65.2181 40.0029 65.2226 39.7871C65.2316 39.564 65.1962 39.3414 65.1182 39.1322C65.0402 38.923 64.9214 38.7314 64.7685 38.5687C64.6156 38.406 64.4319 38.2754 64.2279 38.1845C64.024 38.0936 63.804 38.0443 63.5808 38.0394C62.6762 38.0294 61.8625 38.8424 61.8761 39.747C61.8868 40.183 62.0664 40.5977 62.3769 40.9038Z" fill="#0E317D"/>
<path fill-rule="evenodd" clip-rule="evenodd" d="M18.8893 43.9981C21.2088 44.0117 23.1533 42.0765 23.159 39.7492C23.161 39.1909 23.0529 38.6378 22.8411 38.1213C22.6293 37.6048 22.3178 37.1351 21.9245 36.739C21.5311 36.343 21.0636 36.0282 20.5486 35.8129C20.0335 35.5975 19.4812 35.4857 18.9229 35.4838C16.5848 35.4773 14.6525 37.3867 14.6397 39.7148C14.6268 42.0271 16.5698 43.9845 18.8893 43.9981ZM18.2435 41.2593C18.4427 41.3434 18.6566 41.3874 18.8728 41.3888C19.8182 41.4045 20.604 40.6445 20.599 39.7191C20.5911 38.836 19.8361 38.068 18.9451 38.0437C18.019 38.018 17.2375 38.7923 17.2375 39.7313C17.236 39.9475 17.2771 40.1619 17.3585 40.3622C17.4398 40.5626 17.5599 40.7449 17.7118 40.8988C17.8636 41.0527 18.0443 41.1752 18.2435 41.2593Z" fill="#0E317D"/>
</svg>
