<svg width="105" height="37" viewBox="0 0 105 37" fill="none" xmlns="http://www.w3.org/2000/svg">
<path fill-rule="evenodd" clip-rule="evenodd" d="M98.8216 31.2154C101.617 31.4889 103.723 30.5015 104.997 27.9334L105 18.2815C104.264 16.6788 102.949 15.7379 101.398 15.0186C99.1191 13.9409 96.7588 13.0446 94.3389 12.3383C88.1277 10.5742 81.7797 10.1886 75.3688 10.5058C74.3485 10.5808 73.3399 10.2495 72.5627 9.58414C68.2332 6.09699 63.5153 3.2936 58.2203 1.48028C51.9653 -0.661234 45.6119 -0.084147 39.2694 0.760973C31.8 1.75925 24.6698 4.04299 17.6354 6.68228C16.8735 6.96734 16.1237 7.28778 15.3742 7.6081C12.8949 8.66772 10.4182 9.72617 7.51582 9.49935C5.43994 9.34619 3.98218 10.7875 3.29022 12.7814C3.0907 13.3545 2.96216 13.9517 2.83358 14.5491C2.76828 14.8525 2.70297 15.1559 2.62835 15.4562C2.61247 15.5182 2.59714 15.5809 2.58175 15.6438L2.58174 15.6439C2.46457 16.1233 2.34346 16.6187 1.94459 16.9113C1.12555 17.5114 0.6097 18.3395 0.0955271 19.1649L0 19.3181V21.971C0.292543 22.2837 0.317049 22.6857 0.340013 23.0623C0.345174 23.147 0.350257 23.2304 0.358286 23.3112C0.620848 25.9559 2.14424 27.4575 4.56473 28.278C6.80164 29.0408 9.0274 29.8321 11.2531 30.6233L11.2541 30.6237L11.2541 30.6237L11.2541 30.6237L11.2542 30.6237C12.6828 31.1316 14.1115 31.6395 15.5431 32.1398C15.9928 32.2853 16.3895 32.5603 16.6836 32.9302C17.5372 34.0127 18.6323 34.8802 19.8814 35.4634C21.1305 36.0465 22.4988 36.3291 23.8767 36.2884C25.2546 36.2477 26.6038 35.885 27.8164 35.2291C29.0289 34.5733 30.071 33.6427 30.8592 32.5118C30.9954 32.2857 31.192 32.102 31.4267 31.9812C31.6615 31.8604 31.9252 31.8074 32.1884 31.828C47.5993 31.8481 63.0066 31.8481 78.4102 31.828C78.6729 31.8107 78.9353 31.867 79.1677 31.9907C79.4001 32.1144 79.5934 32.3006 79.7257 32.5282C80.5739 33.743 81.7148 34.7242 83.0428 35.3811C84.3708 36.0381 85.843 36.3494 87.3233 36.2864C88.8035 36.2235 90.244 35.7882 91.5114 35.0208C92.7788 34.2535 93.8322 33.1788 94.5741 31.8964C94.8969 31.3494 95.2305 31.1498 95.8514 31.188C96.3061 31.2145 96.7637 31.2038 97.221 31.1932C97.7566 31.1807 98.2919 31.1682 98.8216 31.2154ZM6.94144 25.5949L14.7773 28.3873C14.7773 28.2437 14.7769 28.1129 14.7766 27.9907L14.7766 27.9899V27.9898V27.9897V27.9897V27.9896C14.776 27.7679 14.7755 27.5748 14.7773 27.3863C14.7819 26.2218 15.0162 25.0697 15.4668 23.9959C15.9174 22.9222 16.5755 21.9478 17.4032 21.1287C18.2309 20.3097 19.2121 19.6619 20.2905 19.2226C21.369 18.7833 22.5235 18.5611 23.688 18.5686C24.8607 18.5681 26.0215 18.8032 27.1016 19.26C28.1817 19.7168 29.1589 20.3861 29.9753 21.228C30.7917 22.0699 31.4306 23.0672 31.854 24.1609C32.2774 25.2545 32.4767 26.422 32.44 27.5942C32.4209 28.4092 32.6041 28.5925 33.4055 28.5925C47.9922 28.5651 62.579 28.5651 77.1657 28.5925C77.9698 28.5925 78.1367 28.3983 78.1367 27.5942C78.0437 21.6018 83.5246 17.368 89.3201 18.9078C91.1307 19.3911 92.7369 20.4459 93.8999 21.9154C95.0628 23.3848 95.7204 25.1904 95.7748 27.0636C95.7912 27.772 95.9608 27.9962 96.6828 27.9443C97.3752 27.8942 98.073 27.9051 98.7704 27.9159C99.0648 27.9205 99.3592 27.9251 99.653 27.9251C101.179 27.9169 101.726 27.3562 101.726 25.8027C101.734 25.119 101.728 24.4353 101.723 23.7517V23.7515V23.7513V23.7511V23.7509C101.714 22.6929 101.705 21.6354 101.745 20.5789C101.781 19.4848 101.335 18.864 100.413 18.3908C95.5286 15.8828 90.3239 14.5153 84.8812 13.9683C81.5468 13.6671 78.1949 13.6077 74.8519 13.7905C74.1536 13.8414 73.4521 13.7535 72.7878 13.5319C72.1236 13.3103 71.5099 12.9595 70.9819 12.4996C69.5459 11.2897 68.033 10.1742 66.4527 9.16016C61.743 6.0778 56.6969 3.81594 51.008 3.41663C46.2874 3.08295 41.5968 3.62997 36.9473 4.45047C28.9884 5.8508 21.3905 8.43812 14.006 11.6736C12.7405 12.2651 11.3576 12.5624 9.96091 12.5434L9.76912 12.5381C8.20446 12.495 7.43889 12.4739 6.98057 12.8388C6.54149 13.1883 6.38441 13.8921 6.07685 15.2702L6.0768 15.2704C6.04415 15.4167 6.00981 15.5705 5.97325 15.7324C5.63684 17.2285 5.15548 18.6178 3.80438 19.5341C3.61446 19.6544 3.46433 19.8281 3.37284 20.0335C3.28136 20.2388 3.25261 20.4666 3.2902 20.6883C3.38543 21.3486 3.43907 21.8873 3.48351 22.3337C3.68796 24.3872 3.69789 24.487 6.66793 25.48C6.7048 25.4943 6.74269 25.5111 6.78185 25.5286L6.78195 25.5286L6.78198 25.5286C6.83284 25.5512 6.88583 25.5748 6.94144 25.5949ZM29.1881 27.4766C29.1915 28.2123 29.0479 28.9413 28.7657 29.6207C28.4836 30.3002 28.0686 30.9165 27.545 31.4334C27.0215 31.9503 26.4 32.3574 25.717 32.6309C25.034 32.9044 24.3032 33.0387 23.5676 33.0259C22.0857 33.0158 20.6685 32.4173 19.6278 31.3622C18.5871 30.3072 18.0081 28.8819 18.0183 27.4C18.0284 25.918 18.6269 24.5009 19.6819 23.4601C20.737 22.4194 22.1623 21.8405 23.6442 21.8506C24.38 21.8476 25.109 21.9916 25.7884 22.2743C26.4678 22.557 27.0838 22.9726 27.6003 23.4967C28.1167 24.0208 28.5233 24.6429 28.7959 25.3264C29.0686 26.0098 29.2019 26.7409 29.1881 27.4766ZM92.0999 29.6016C92.3792 28.9207 92.5193 28.1907 92.5119 27.4547C92.5173 26.7252 92.379 26.0019 92.1048 25.3259C91.8306 24.6499 91.426 24.0345 90.914 23.5149C90.402 22.9952 89.7926 22.5815 89.1207 22.2974C88.4489 22.0133 87.7276 21.8643 86.9981 21.8589C86.2687 21.8535 85.5453 21.9918 84.8693 22.266C84.1933 22.5402 83.5779 22.9448 83.0583 23.4568C82.5386 23.9688 82.125 24.5782 81.8408 25.25C81.5567 25.9219 81.4077 26.6432 81.4023 27.3727C81.4187 30.559 83.7107 32.9576 86.9106 33.0205C87.6465 33.0326 88.3774 32.8971 89.0601 32.6222C89.7428 32.3472 90.3635 31.9382 90.8856 31.4195C91.4077 30.9007 91.8206 30.2826 92.0999 29.6016ZM26.5843 17.4473H43.6946C48.9221 17.4545 54.1478 17.4545 59.3717 17.4473C60.6627 17.4473 61.8497 17.4473 63.0914 16.6267C65.293 15.1772 65.5283 12.4203 63.2773 11.0172C60.8219 9.47724 58.1745 8.26708 55.4032 7.41795C51.5879 6.25557 47.7588 6.3595 43.8642 6.99403C43.3034 7.08544 42.7425 7.17613 42.1817 7.26681L42.1805 7.26699L42.1805 7.267C36.6171 8.16647 31.0565 9.06549 25.638 10.6754C23.5375 11.299 22.5146 12.8141 22.8073 14.6712C23.0999 16.5283 24.3444 17.4473 26.5843 17.4473ZM40.7627 10.916C36.1624 11.6599 31.5648 12.434 27.0876 13.8015C27.0876 13.8015 27.0876 13.8015 27.0876 13.8015C27.4762 14.0765 27.8981 14.0454 28.3205 14.0142C28.5493 13.9973 28.7783 13.9804 29.0021 14.0121C29.1324 14.0297 29.2654 14.0232 29.3984 14.0167C29.6593 14.004 29.9199 13.9914 30.159 14.1598H30.1081C30.1223 14.1624 30.1366 14.1651 30.1508 14.1679L60.4493 14.3375C60.6339 14.3623 60.8217 14.3468 60.9997 14.292C61.1777 14.2373 61.3417 14.1445 61.4804 14.0203C56.8719 11.2251 52.1021 9.33244 46.632 10.0955C45.9836 10.1861 45.3348 10.2724 44.6863 10.3588L44.6862 10.3588L44.6857 10.3589C43.3759 10.5332 42.0668 10.7075 40.7627 10.916Z" fill="#0E317D"/>
</svg>
