<svg width="105" height="43" viewBox="0 0 105 43" fill="none" xmlns="http://www.w3.org/2000/svg">
<path fill-rule="evenodd" clip-rule="evenodd" d="M5.04446 5.50229C2.99679 8.13822 0.946053 10.7781 0 14.1028L0.049227 28.0318C0.12648 28.1348 0.190781 28.2468 0.240677 28.3655C1.0174 31.0895 2.78964 32.7442 5.58202 33.231C7.2941 33.5291 9.01985 33.7561 10.7483 33.9721C11.3473 34.0487 11.6536 34.1882 11.815 34.8965C12.7804 39.1658 16.1799 42.0539 20.6297 42.497C24.5626 42.8881 28.4735 40.5278 30.2212 36.6661C30.4345 36.1765 30.6615 35.944 31.255 35.944C45.9817 35.9641 60.7094 35.9641 75.438 35.944C76.0069 35.944 76.2585 36.1273 76.491 36.6387C78.5996 41.2744 83.5362 43.5636 88.2759 42.0949C93.0155 40.6263 95.8107 35.9714 94.9902 30.9664C94.2189 26.317 89.8649 22.8382 85.1006 23.0351C80.216 23.2347 76.078 26.9898 75.7607 31.6857C75.6842 32.8125 75.2821 32.8918 74.3687 32.8918C60.6082 32.8864 46.8423 32.8782 33.071 32.8672C32.8914 32.8672 32.7009 32.8887 32.5096 32.9104C32.019 32.9658 31.5234 33.0218 31.1948 32.7168C30.9974 32.5337 30.9908 32.154 30.984 31.7657C30.9804 31.5568 30.9767 31.3453 30.9432 31.1606C30.0872 26.5112 26.4004 23.2676 21.7209 23.0406C19.5206 22.9324 17.3499 23.5832 15.5721 24.8841C13.7942 26.185 12.5171 28.0571 11.9545 30.187C11.7603 30.8817 11.4731 31.0047 10.8304 30.8981C10.0672 30.772 9.29854 30.6681 8.52889 30.564C7.74582 30.4582 6.96166 30.3522 6.18097 30.2225C4.24737 29.8998 3.15339 28.5597 3.15339 26.5741C3.14427 25.4346 3.14731 24.2964 3.15035 23.1578C3.15187 22.5883 3.15339 22.0187 3.15339 21.4488C3.15414 21.2808 3.14233 21.1014 3.13045 20.9208C3.09902 20.4433 3.06706 19.9576 3.26553 19.652C3.44111 19.3816 3.83313 19.4234 4.24184 19.467C4.46974 19.4914 4.70284 19.5163 4.9065 19.4879C4.92967 19.485 4.95318 19.4807 4.97692 19.4764C5.02041 19.4685 5.06464 19.4605 5.10888 19.4605C5.92936 19.3156 6.38883 18.8151 6.40524 17.9946C6.43727 17.6302 6.32427 17.2678 6.09078 16.9862C5.85729 16.7046 5.52215 16.5264 5.15811 16.4904C4.75585 16.409 4.3433 16.3915 3.93559 16.4384C3.19442 16.5369 3.09323 16.1923 3.11511 15.5742C3.15805 14.167 3.62516 12.8057 4.45522 11.6686C4.85176 11.115 5.25533 10.5659 5.65886 10.0168L5.65888 10.0168L5.6589 10.0168L5.65892 10.0168L5.65894 10.0167L5.65894 10.0167C6.61078 8.7217 7.56237 7.427 8.4209 6.07295C9.85948 3.81115 11.8259 2.85938 14.4624 3.03716C15.2172 3.08365 15.3458 3.17664 14.9438 3.85764C13.7787 5.82133 12.6355 7.80143 11.5415 9.80341C11.3249 10.1726 11.1854 10.5819 11.1313 11.0065C11.0771 11.4311 11.1096 11.8622 11.2267 12.274C11.3437 12.6857 11.5429 13.0694 11.8123 13.4021C12.0817 13.7347 12.4157 14.0093 12.7941 14.2094C13.4416 14.5591 14.1504 14.558 14.8625 14.5569L14.982 14.5568C33.669 14.5805 52.3578 14.5805 71.0484 14.5568C76.4253 14.5513 81.7722 14.7181 87.0917 15.5249C91.0792 16.1403 95.0011 16.9799 98.7206 18.6017C99.3586 18.8187 99.9213 19.2135 100.342 19.7395C100.11 19.7395 99.9007 19.7374 99.7059 19.7354H99.7058C99.3543 19.7319 99.0506 19.7289 98.748 19.7395C97.6595 19.775 97.0441 20.3193 97.0168 21.2191C96.9894 22.1189 97.6048 22.737 98.6578 22.7971C99.4076 22.8601 100.161 22.8601 100.911 22.7971C101.811 22.7069 101.972 23.0706 101.951 23.8911C101.911 25.4842 101.919 27.0773 101.926 28.6704L101.926 28.6754C101.929 29.3014 101.931 29.9274 101.931 30.5535C101.931 32.1616 101.568 32.6047 100.017 32.9192C99.0625 33.1106 98.5265 33.8163 98.6495 34.6477C98.7726 35.4791 99.5028 36.037 100.446 35.9495C101.339 35.8995 102.199 35.602 102.932 35.0905C103.665 34.5789 104.241 33.8735 104.595 33.0532C104.647 32.9469 104.675 32.8302 104.704 32.7135C104.755 32.5028 104.806 32.2921 104.995 32.1425V22.0943C104.99 22.0877 104.985 22.0813 104.979 22.0748C104.975 22.069 104.97 22.0633 104.965 22.0575C104.956 22.0474 104.947 22.0373 104.938 22.0272L104.938 22.027C104.892 21.976 104.845 21.9242 104.836 21.8673C104.289 18.9436 102.593 16.9553 99.9131 15.7793C98.3197 15.0889 96.6791 14.5131 95.0038 14.0563C89.1428 12.4344 83.1615 11.7671 77.1091 11.5729C76.3641 11.5634 75.6373 11.3413 75.0141 10.9329C73.1867 9.75885 71.354 8.59524 69.5222 7.43217C67.6119 6.21922 65.7024 5.00685 63.8008 3.7838C60.1049 1.34331 55.7775 0.0335932 51.3486 0.0150422C38.6457 -0.00501407 25.9428 -0.00501407 13.2399 0.0150422C10.721 0.0177772 8.45099 0.879281 6.97959 2.94143C6.35933 3.80966 5.70207 4.65574 5.04449 5.50224L5.04449 5.50224L5.04448 5.50225L5.04446 5.50229ZM69.1318 11.5059C69.3734 11.5204 69.6406 11.5364 69.9736 11.3158C68.9733 10.694 67.9838 10.067 66.9984 9.44264L66.9982 9.44251L66.998 9.44238L66.9978 9.44225L66.9974 9.44197C64.7717 8.03166 62.5669 6.6346 60.3056 5.33999C56.6927 3.26964 52.6778 2.96059 48.6 3.05905C47.8479 3.07819 47.6811 3.29151 47.7932 3.99166L47.8148 4.12582L47.8149 4.1261L47.8149 4.12614C48.1551 6.23657 48.4957 8.34978 48.734 10.4735C48.827 11.2885 49.0786 11.5237 49.8991 11.5237C56.2522 11.4991 62.6079 11.4991 68.961 11.4991H68.9617C69.0173 11.4991 69.0738 11.5025 69.1318 11.5059ZM78.7063 32.8016C78.7363 31.0551 79.4498 29.3901 80.6937 28.1638C81.9376 26.9376 83.6127 26.2479 85.3594 26.2429C87.1061 26.2379 88.7852 26.9179 90.0361 28.137C91.287 29.3561 92.0101 31.0171 92.0501 32.7633C92.0704 33.6507 91.9136 34.5332 91.5886 35.3592C91.2637 36.1851 90.7772 36.938 90.1577 37.5737C89.5382 38.2093 88.7982 38.715 87.9808 39.0612C87.1635 39.4073 86.2853 39.5869 85.3977 39.5894C84.5101 39.592 83.631 39.4174 82.8116 39.076C81.9923 38.7346 81.2494 38.2331 80.6263 37.601C80.0031 36.9689 79.5124 36.2189 79.1827 35.3947C78.853 34.5706 78.691 33.6891 78.7063 32.8016ZM26.8098 36.4848C27.5401 35.3816 27.9259 34.0863 27.9183 32.7633C27.9033 31.0078 27.1991 29.3284 25.9574 28.0873C24.7158 26.8461 23.0361 26.1426 21.2806 26.1283C19.9576 26.1213 18.6624 26.5077 17.5595 27.2383C16.4566 27.969 15.5958 29.011 15.0864 30.232C14.577 31.453 14.442 32.7978 14.6986 34.0957C14.9552 35.3936 15.5917 36.5859 16.5274 37.5212C17.4631 38.4565 18.6557 39.0925 19.9536 39.3486C21.2516 39.6046 22.5964 39.4691 23.8172 38.9592C25.0379 38.4493 26.0796 37.588 26.8098 36.4848ZM38.4424 11.5046C37.8306 11.5046 37.2188 11.5029 36.6069 11.5012C35.0007 11.4969 33.3945 11.4925 31.7882 11.5182C31.1592 11.5182 30.9678 11.3459 30.9869 10.7142C31.0234 8.42775 31.0234 6.14133 30.9869 3.85491C30.9869 3.19579 31.2057 3.06452 31.8074 3.06725C35.8004 3.09096 39.7934 3.09096 43.7865 3.06725C44.462 3.06725 44.6398 3.29151 44.7191 3.92328C44.9981 6.155 45.3199 8.38125 45.6845 10.602C45.8021 11.3213 45.6517 11.5428 44.8914 11.5237C43.3435 11.4862 41.7929 11.4928 40.2424 11.4994C39.6423 11.502 39.0422 11.5046 38.4424 11.5046ZM18.6797 3.40366C17.1736 6.05291 15.6639 8.70399 14.1506 11.3569C14.2002 11.386 14.2383 11.4121 14.2697 11.4336C14.3178 11.4666 14.3499 11.4887 14.3831 11.4936C15.6824 11.4961 16.9818 11.4978 18.2811 11.4995C21.3112 11.5036 24.3413 11.5076 27.3714 11.521C27.839 11.5237 27.9348 11.3541 27.9348 10.9275C27.9156 8.53989 27.9101 6.15502 27.9348 3.76741C27.9402 3.22862 27.7843 3.0782 27.2373 3.0782C25.5197 3.08914 23.7887 3.08549 22.0581 3.08184C21.1929 3.08002 20.3278 3.0782 19.4646 3.0782C19.4573 3.0782 19.45 3.07819 19.4427 3.07819C19.1396 3.078 18.8666 3.07783 18.6797 3.40366Z" fill="#0E317D"/>
</svg>
